<svg xmlns="http://www.w3.org/2000/svg" viewBox="0 0 720 720" role="img" aria-label="Gurushala emblem"><defs><radialGradient id="bg" cx="50%" cy="42%" r="62%"><stop offset="0" stop-color="#fffdf8"/><stop offset=".68" stop-color="#f7f3ea"/><stop offset="1" stop-color="#efe7db"/></radialGradient><linearGradient id="river" x1="0" y1="0" x2=".7" y2="1"><stop offset="0" stop-color="#9db7bf"/><stop offset="1" stop-color="#5f8797"/></linearGradient><linearGradient id="trunk" x1="0" y1="0" x2="1" y2="1"><stop offset="0" stop-color="#c7a15d"/><stop offset="1" stop-color="#8d7963"/></linearGradient></defs><circle cx="360" cy="360" r="342" fill="url(#bg)" stroke="#c7a15d" stroke-width="4"/><circle cx="360" cy="360" r="322" fill="none" stroke="#c7a15d" stroke-opacity=".38" stroke-width="2" stroke-dasharray="2 12"/><circle cx="360" cy="292" r="205" fill="none" stroke="#c7a15d" stroke-opacity=".2" stroke-width="2"/><g fill="#c7a15d" opacity=".72"><circle cx="360" cy="74" r="4"/><circle cx="226" cy="104" r="3"/><circle cx="494" cy="104" r="3"/><path d="M521 139l4 10 10 4-10 4-4 10-4-10-10-4 10-4z"/><path d="M189 151l3 8 8 3-8 3-3 8-3-8-8-3 8-3z"/></g><path d="M124 447c48-76 91-109 136-110 43 0 75 31 105 77 34-66 72-103 118-103 47 0 85 39 124 136z" fill="#d9e0dc" opacity=".62"/><path d="M352 441c2-40 5-76 7-111-24-15-44-34-59-57 23 15 43 25 61 30 3-30 4-58 3-84h16c-1 26 0 54 3 84 18-5 38-15 61-30-15 23-35 42-59 57 2 35 5 71 7 111z" fill="url(#trunk)"/><g fill="#7f927c"><ellipse cx="360" cy="183" rx="27" ry="18"/><ellipse cx="314" cy="203" rx="29" ry="18" transform="rotate(-22 314 203)"/><ellipse cx="406" cy="203" rx="29" ry="18" transform="rotate(22 406 203)"/><ellipse cx="276" cy="236" rx="31" ry="19"/><ellipse cx="444" cy="236" rx="31" ry="19"/><ellipse cx="328" cy="244" rx="33" ry="21"/><ellipse cx="392" cy="244" rx="33" ry="21"/><ellipse cx="300" cy="279" rx="34" ry="21"/><ellipse cx="420" cy="279" rx="34" ry="21"/><ellipse cx="350" cy="285" rx="36" ry="23"/></g><path d="M151 476c67-24 135-23 204 11v86c-67-32-135-35-204-10zM569 476c-67-24-135-23-204 11v86c67-32 135-35 204-10z" fill="#fffdf8" stroke="#c7a15d" stroke-width="4"/><path d="M360 488v85" stroke="#c7a15d" stroke-width="4"/><path d="M362 473c-16 36-7 61 22 78 34 20 37 47 8 80-16 18-27 36-32 55h58c4-13 13-26 27-40 48-49 43-97-15-131-19-11-22-25-9-42z" fill="url(#river)"/></svg>